# xmcd CD database file generated by OrangeCD 5.2
#
# Track frame offsets:
#	150
#	13431
#	29211
#	41325
#	53304
#	70024
#	83633
#	97099
#	110227
#	126040
#	142877
#	158384
#	172184
#	183714
#
# Disc length: 2628 seconds
#
# Revision: 0
# Processed by: cddbd v1.5.1PL0 Copyright (c) Steve Scherf et al.
# Submitted via: OrangeCD 5.2
#
DISCID=bd0a420e
DTITLE=John Williamson - Gunyah
DYEAR=1900
DGENRE=Country
TTITLE0=A Mighty Big River
TTITLE1=Around Jindabyne
TTITLE2=Big Brother Little Brother
TTITLE3=Buried in Her Bedclothes
TTITLE4=Butta Outa Grass
TTITLE5=Cape York Peninsula
TTITLE6=Frangipani Bay
TTITLE7=Ganiie's Little Gunyah
TTITLE8=Salisbury Street
TTITLE9=Sing You the Outback
TTITLE10=Telephone in My Pocket
TTITLE11=The Devil's Boots
TTITLE12=The Kiwi and the Emu
TTITLE13=You Are My Foundation
EXTD=
EXTT0=
EXTT1=
EXTT2=
EXTT3=
EXTT4=
EXTT5=
EXTT6=
EXTT7=
EXTT8=
EXTT9=
EXTT10=
EXTT11=
EXTT12=
EXTT13=
PLAYORDER=
